<svg xmlns="http://www.w3.org/2000/svg" viewBox="0 0 64 64">
  <!-- Drop Mode: a neon pug, with a lightning bolt (fast checkout) -->
  <defs>
    <linearGradient id="neon" x1="0" y1="0" x2="1" y2="0">
      <stop offset="0" stop-color="#6d7bff"/>
      <stop offset="1" stop-color="#e86ff0"/>
    </linearGradient>
    <filter id="glow" x="-20%" y="-20%" width="140%" height="140%">
      <feGaussianBlur stdDeviation="1.6" result="b"/>
      <feMerge><feMergeNode in="b"/><feMergeNode in="SourceGraphic"/></feMerge>
    </filter>
  </defs>
  <g filter="url(#glow)">
    <path d="M15 16 Q4.5 14.5 3.5 26.5 Q4.5 31 9 30 Q13 23.5 20 20.5 Z" fill="url(#neon)"/>
    <path d="M49 16 Q59.5 14.5 60.5 26.5 Q59.5 31 55 30 Q51 23.5 44 20.5 Z" fill="url(#neon)"/>
    <ellipse cx="32" cy="37" rx="22.5" ry="20.5" fill="url(#neon)" stroke="#1c1a24" stroke-width="1.6"/>
  </g>
  <g fill="none" stroke="#1c1a24" stroke-width="2.2" stroke-linecap="round">
    <path d="M25 21.5 Q32 18.5 39 21.5"/>
    <path d="M27 26 Q32 24 37 26"/>
  </g>
  <circle cx="21" cy="35" r="6" fill="#1c1a24"/>
  <circle cx="43" cy="35" r="6" fill="#1c1a24"/>
  <circle cx="23" cy="33" r="1.7" fill="#fff" opacity=".9"/>
  <circle cx="45" cy="33" r="1.7" fill="#fff" opacity=".9"/>
  <ellipse cx="32" cy="46" rx="13.5" ry="10.5" fill="#1c1a24"/>
  <ellipse cx="32" cy="41.8" rx="4.8" ry="3.2" fill="url(#neon)"/>
  <path d="M32 45 V47.5 M26.5 48 Q29.2 51 32 47.5 Q34.8 51 37.5 48" fill="none" stroke="url(#neon)" stroke-width="1.8" stroke-linecap="round"/>
  <path d="M30 50.2 Q30 55.3 32 55.3 Q34 55.3 34 50.2 Z" fill="#ff8fb8"/>
  <path d="M53 1.5 L44.5 17 H51 L47 28.5 L60.5 11.5 H54 L58 1.5 Z" fill="#f2b544" stroke="#1c1a24" stroke-width="2.2" stroke-linejoin="round"/>
</svg>
